<?xml version="1.0" encoding="utf-8"?>
<!-- Generator: Adobe Illustrator 24.0.1, SVG Export Plug-In . SVG Version: 6.00 Build 0)  -->
<svg version="1.1" baseProfile="basic" id="Слой_1"
	 xmlns="http://www.w3.org/2000/svg" xmlns:xlink="http://www.w3.org/1999/xlink" x="0px" y="0px" viewBox="0 0 595.3 841.9"
	 xml:space="preserve">
<rect x="-123.3" y="123.3" transform="matrix(3.421427e-07 1 -1 3.421427e-07 718.5825 123.3068)" fill="#1C355E" width="841.9" height="595.3"/>
<g>
	<polygon fill="#238DC1" points="359.4,347.1 385.9,373.7 359.2,400.4 373.2,414.4 413.9,373.7 373.3,333.2 359.4,347.1 	"/>
	<path fill="#FFFFFF" d="M296.7,334.3c1.5,0,3.1,0.4,4.5,1.1c0.6-5.4-1.1-10.6-2.8-15.9c-2,5.1-4,10.1-4.4,15.2
		C294.9,334.4,295.8,334.3,296.7,334.3z"/>
	<path fill="#FFFFFF" d="M276.7,340.9L276.7,340.9c0.3,0,0.5,0,0.8,0c-0.2-4.8,1.4-9.4,2.8-14c-5.5,3.9-8,9.3-8.8,15.6
		C273,341.4,274.8,340.9,276.7,340.9z"/>
	<path fill="#FFFFFF" d="M263.3,356.3c0.2-2.7,0.8-5.3,1.2-8c-4.9,4.5-6.9,10.1-7,16.5c1.6-1.5,3.7-2.4,5.9-2.4
		C263.3,360.4,263.2,358.4,263.3,356.3z"/>
	<path fill="#FFFFFF" d="M316.8,340.8L316.8,340.8c1.7,0,3.4,0.5,4.9,1.6c-0.1-6.8-2.2-12.5-7.7-17.5c1.3,5.6,2.4,10.9,1.6,16
		C316,340.8,316.4,340.8,316.8,340.8z"/>
	<path fill="#FFFFFF" d="M332.7,358.2c0.8,0,1.6,0.1,2.5,0.3c0.8,0.2,1.6,0.5,2.3,0.9c0-6.5-3.6-14.5-7.5-16.3
		c1.7,5.1,2.2,10.2,1.5,15.2C331.9,358.3,332.3,358.2,332.7,358.2z"/>
	<path fill="#FFFFFF" d="M281.8,346.6c-1.5-1.6-3.3-2.3-5.1-2.3c-2.4,0-4.7,1.4-6,4.1c-1.5,3-1.8,6.3-1.4,9.5
		c0.5,4.4,2,8.4,5.3,11.4c1.7,1.6,3.5,2.3,5.2,2.3c2.3,0,4.5-1.4,5.8-4.2c1-2.2,1.3-4.7,1.6-5.9c-0.1-1.8-0.2-3.5-0.5-5
		c-0.2-0.7-0.4-1.5-0.6-2.3C285.3,351.3,283.9,348.8,281.8,346.6z"/>
	<path fill="#FFFFFF" d="M305.6,350.1c0.1-3.2-0.3-6.1-1.8-8.6c-1.5-2.6-4.3-4.4-7-4.4c-2,0-4,0.9-5.5,3.1
		c-3.7,5.2-3.4,15.9,0.8,20.6c1,1.1,2.4,2,3.8,2.4c0.5,0.1,1,0.2,1.5,0.2c2.6,0,4.9-1.8,6.3-4.9C305,355.7,305.8,352.8,305.6,350.1z
		"/>
	<path fill="#FFFFFF" d="M319.5,368.8c5.2-5,6.5-15.5,2.7-21.6c-1.4-2.3-3.4-3.5-5.4-3.5c-2,0-4,1.1-5.5,3.4
		c-2.4,3.4-3.2,7.2-3.4,11.2c0.1,3.7,0.6,7.3,3.3,10.3c1.3,1.4,2.8,2.1,4.3,2.1C316.9,370.5,318.3,370,319.5,368.8z"/>
	<path fill="#FFFFFF" d="M339.6,369.2c-0.2-3.7-2.3-7-5.1-7.7c-0.6-0.1-1.2-0.2-1.7-0.2c-2.6,0-4.7,1.5-6.4,3.5
		c-3.5,4.1-4.8,9-3.9,14.3c0.5,3,1.6,5.8,5,6.8c0.6,0.2,1.2,0.3,1.8,0.3c2.4,0,4.4-1.4,6.1-3.3c3-3.3,4.2-7.3,4.3-11.6
		C339.6,370.6,339.6,369.9,339.6,369.2z"/>
	<path fill="#FFFFFF" d="M272.5,377.5c-0.6-4-1.8-7.3-4.8-9.9c-1.3-1.1-2.8-1.7-4.2-1.7c-2.1,0-4,1.2-5.1,3.5
		c-0.8,1.7-1.3,3.7-1.5,5.6c-0.5,4.7,0.3,9.1,3.5,12.9c1.6,1.9,3.5,2.8,5.3,2.8c2.1,0,4.2-1.3,5.5-3.8c0.2-0.4,0.4-0.9,0.6-1.4
		C272.6,383,272.9,380.2,272.5,377.5z"/>
	<path fill="#FFFFFF" d="M314.3,416.5L314.3,416.5L314.3,416.5z"/>
	<path fill="#FFFFFF" d="M323.3,387.4c-5.1-2.3-8.6-6-10-11.8c-0.2-1-0.8-2-1.5-2.9c-0.5-0.6-1-1.1-1.5-1.5c-0.5-0.4-1-0.7-1.6-1
		c-6-3.4-13.7-3.7-20.2-0.6c-1,0.5-2,1-3,1.7c-1.6,1.1-2.9,2.4-4,3.8c-1.5,2.1-2.5,4.5-3.3,7c-1.9,6-5.2,10.9-11.4,13.4
		c-3,1.2-5.2,3.4-6.1,6.6c-2,6.4,4.2,15.2,11,15.8c3.5,0.3,6.9-0.6,10-2c6.7-3,13.5-3.6,20.6-1.4c3.8,1.2,8,1.2,11.9,2
		c7.7,0.5,13-3.4,17.1-9.3c1.5-2.2,2.5-4.6,2.9-7.3c0.5-4-1.1-7.4-4.6-9.4c-0.8-0.5-1.6-0.9-2.4-1.4c-0.8-0.4-1.6-0.8-2.5-1.2
		C324.3,387.8,323.8,387.6,323.3,387.4z M314.3,416.5L314.3,416.5z"/>
	<polygon fill="#238DC1" points="237,400.2 210.4,373.7 237.2,346.9 223.2,333 182.5,373.7 223,414.2 237,400.2 	"/>
	<path fill="#FFFFFF" d="M219.9,463.7c2.1,0,5.8,0.2,8.5,2.3c1.2,0.9,3.3,3.2,3.3,7.7c0,1.8-0.4,5-3.7,7.3c5.2,1.3,7,5.8,7,9.3
		s-1.8,6.4-3.8,8c-2.9,2.3-6.3,2.4-8.9,2.4h-9.2v-37H219.9z M217.3,480h3.1c2.2,0,7.3-0.4,7.3-6.2c0-6.1-6-6.2-7.2-6.2h-3.2V480z
		 M217.3,496.8h4.7c2.4,0,4.7-0.2,6.5-1.6c1.4-1.1,2.4-2.9,2.4-5.1c0-2.9-1.7-4.7-3.2-5.4c-1.4-0.8-3.3-1.1-6.3-1.1h-4.2V496.8z"/>
	<path fill="#FFFFFF" d="M247.8,463.7c2.5,0,6.2,0.2,9,2.1c2.2,1.4,4,4.3,4,8.2c0,5.7-3.7,9.8-9.3,10.2l11.8,16.5h-5L247,484.5H246
		v16.2h-4.1v-37H247.8z M246,480.9h2.6c5.1,0,8.1-2.4,8.1-6.8c0-2.1-0.6-4.1-2.9-5.4c-1.7-0.9-3.5-1.1-5.3-1.1H246V480.9z"/>
	<path fill="#FFFFFF" d="M272.3,486.4c0,3.1,0,6.5,2.9,9c1.5,1.3,4,2.1,6.1,2.1c2.1,0,4.6-0.8,6.1-2.1c2.9-2.5,2.9-5.9,2.9-9v-22.7
		h4.1v23.8c0,3.1-0.3,6.1-2.3,8.9c-2.2,3-6.1,5-10.8,5s-8.6-1.9-10.8-5c-2-2.8-2.3-5.8-2.3-8.9v-23.8h4.1V486.4z"/>
	<polygon fill="#FFFFFF" points="307.6,478.8 326.5,478.8 326.5,463.7 330.6,463.7 330.6,500.7 326.5,500.7 326.5,482.6 
		307.6,482.6 307.6,500.7 303.5,500.7 303.5,463.7 307.6,463.7 	"/>
	<rect x="339.7" y="463.7" fill="#FFFFFF" width="4.1" height="37"/>
	<polygon fill="#FFFFFF" points="352.8,500.7 352.8,462.2 381.7,492.4 381.7,463.7 385.8,463.7 385.8,502.4 356.9,472.2 
		356.9,500.7 	"/>
	<path fill="#FFFFFF" d="M243.4,522.5c-0.2-0.4-0.5-0.8-0.8-1c-0.3-0.2-0.7-0.5-1.5-0.5c-1.3,0-2.3,0.8-2.3,2.1
		c0,0.5,0.1,0.8,0.5,1.2c0.4,0.4,0.9,0.6,1.4,0.8l1.3,0.6c0.8,0.3,1.5,0.7,2.1,1.3c0.7,0.7,1,1.5,1,2.4c0,2.5-1.8,4.1-4.3,4.1
		c-0.9,0-2-0.2-2.9-1.1c-0.7-0.6-1.1-1.6-1.3-2.4l1.5-0.4c0.1,0.7,0.4,1.3,0.8,1.7c0.6,0.6,1.3,0.7,1.9,0.7c1.8,0,2.7-1.3,2.7-2.7
		c0-0.6-0.2-1.1-0.7-1.6c-0.4-0.4-0.9-0.6-1.6-0.9l-1.2-0.6c-0.5-0.2-1.2-0.5-1.8-1.1c-0.6-0.6-0.9-1.2-0.9-2.2
		c0-2.1,1.6-3.5,3.8-3.5c0.8,0,1.5,0.2,2.2,0.6c0.5,0.4,1,0.9,1.3,1.5L243.4,522.5z"/>
	<path fill="#FFFFFF" d="M251,526.6c0-4,3.1-7,7-7s7,2.9,7,7c0,4-3.1,7-7,7C254.1,533.6,251,530.6,251,526.6z M252.5,526.6
		c0,3.1,2.4,5.6,5.5,5.6s5.5-2.5,5.5-5.6c0-3.1-2.4-5.6-5.5-5.6S252.5,523.5,252.5,526.6z"/>
	<polygon fill="#FFFFFF" points="277.9,521.3 273.3,521.3 273.3,525.2 277.8,525.2 277.8,526.7 273.3,526.7 273.3,533.3 
		271.8,533.3 271.8,519.9 277.9,519.9 	"/>
	<polygon fill="#FFFFFF" points="288.2,521.3 288.2,533.3 286.7,533.3 286.7,521.3 283.5,521.3 283.5,519.9 291.5,519.9 
		291.5,521.3 	"/>
	<polygon fill="#FFFFFF" points="298.4,519.9 301.9,530 306.1,519.2 310.1,530 314.1,519.9 315.7,519.9 310.1,534 306.1,523.3 
		301.9,534 296.7,519.9 	"/>
	<path fill="#FFFFFF" d="M328,529.5h-5.7l-1.6,3.8H319l6.2-14.1l6,14.1h-1.7L328,529.5z M327.4,528.1l-2.3-5.4l-2.3,5.4H327.4z"/>
	<path fill="#FFFFFF" d="M339.3,519.9c0.9,0,2.3,0.1,3.3,0.7c0.8,0.5,1.5,1.6,1.5,3c0,2.1-1.4,3.6-3.4,3.7l4.3,6h-1.8l-4.1-5.9h-0.4
		v5.9h-1.5v-13.5H339.3z M338.6,526.1h0.9c1.9,0,3-0.9,3-2.5c0-0.7-0.2-1.5-1.1-2c-0.6-0.3-1.3-0.4-1.9-0.4h-0.9V526.1z"/>
	<polygon fill="#FFFFFF" points="358.2,521.3 352.7,521.3 352.7,525.3 358,525.3 358,526.7 352.7,526.7 352.7,531.9 358.2,531.9 
		358.2,533.3 351.2,533.3 351.2,519.9 358.2,519.9 	"/>
</g>
</svg>
