<?xml version="1.0" encoding="UTF-8" standalone="no"?>
<!-- Generator: Adobe Illustrator 24.0.1, SVG Export Plug-In . SVG Version: 6.00 Build 0)  -->

<svg
   xmlns:dc="http://purl.org/dc/elements/1.1/"
   xmlns:cc="http://creativecommons.org/ns#"
   xmlns:rdf="http://www.w3.org/1999/02/22-rdf-syntax-ns#"
   xmlns:svg="http://www.w3.org/2000/svg"
   xmlns="http://www.w3.org/2000/svg"
   xmlns:sodipodi="http://sodipodi.sourceforge.net/DTD/sodipodi-0.dtd"
   xmlns:inkscape="http://www.inkscape.org/namespaces/inkscape"
   version="1.1"
   id="Слой_1"
   x="0px"
   y="0px"
   viewBox="0 0 231.4 214.49999"
   xml:space="preserve"
   sodipodi:docname="Bruhin_Logo_WhiteBG_compact.svg"
   width="231.39999"
   height="214.5"
   inkscape:export-filename="/home/florian/proj/qutebrowser/blog.qutebrowser.org/content/images/bruhinsw.png"
   inkscape:export-xdpi="149.93005"
   inkscape:export-ydpi="149.93005"
   inkscape:version="0.92.5 (2060ec1f9f, 2020-04-08)"><metadata
   id="metadata132"><rdf:RDF><cc:Work
       rdf:about=""><dc:format>image/svg+xml</dc:format><dc:type
         rdf:resource="http://purl.org/dc/dcmitype/StillImage" /><dc:title></dc:title></cc:Work></rdf:RDF></metadata><defs
   id="defs130" /><sodipodi:namedview
   pagecolor="#ffffff"
   bordercolor="#666666"
   borderopacity="1"
   objecttolerance="10"
   gridtolerance="10"
   guidetolerance="10"
   inkscape:pageopacity="0"
   inkscape:pageshadow="2"
   inkscape:window-width="1274"
   inkscape:window-height="708"
   id="namedview128"
   showgrid="false"
   fit-margin-top="0"
   fit-margin-left="0"
   fit-margin-right="0"
   fit-margin-bottom="0"
   inkscape:zoom="4.4850931"
   inkscape:cx="38.534407"
   inkscape:cy="24.615218"
   inkscape:window-x="2560"
   inkscape:window-y="730"
   inkscape:window-maximized="0"
   inkscape:current-layer="Слой_1" />
<g
   id="g125"
   transform="translate(-173.2,-311.1)"
   inkscape:export-filename="/home/florian/proj/qutebrowser/blog.qutebrowser.org/content/images/bruhinsw.png"
   inkscape:export-xdpi="149.93005"
   inkscape:export-ydpi="149.93005">
	<polygon
   points="349.9,391.8 363.9,405.8 404.6,365.1 364,324.5 350.1,338.5 376.6,365.1 "
   id="polygon69"
   style="fill:#238dc1" />
	<path
   d="m 286.4,325.9 c 1.5,0 3.1,0.4 4.5,1.1 0.6,-5.4 -1.1,-10.6 -2.8,-15.9 -2,5.1 -4,10.1 -4.4,15.2 0.9,-0.3 1.8,-0.4 2.7,-0.4 z"
   id="path71"
   inkscape:connector-curvature="0"
   style="fill:#1c355e" />
	<path
   d="m 266.4,332.4 v 0 c 0.3,0 0.5,0 0.8,0 -0.2,-4.8 1.4,-9.4 2.8,-14 -5.5,3.9 -8,9.3 -8.8,15.6 1.5,-1 3.3,-1.6 5.2,-1.6 z"
   id="path73"
   inkscape:connector-curvature="0"
   style="fill:#1c355e" />
	<path
   d="m 253,347.9 c 0.2,-2.7 0.8,-5.3 1.2,-8 -4.9,4.5 -6.9,10.1 -7,16.5 1.6,-1.5 3.7,-2.4 5.9,-2.4 0,-2 -0.2,-4.1 -0.1,-6.1 z"
   id="path75"
   inkscape:connector-curvature="0"
   style="fill:#1c355e" />
	<path
   d="m 306.5,332.3 v 0 c 1.7,0 3.4,0.5 4.9,1.6 -0.1,-6.8 -2.2,-12.5 -7.7,-17.5 1.3,5.6 2.4,10.9 1.6,16 0.4,0 0.8,-0.1 1.2,-0.1 z"
   id="path77"
   inkscape:connector-curvature="0"
   style="fill:#1c355e" />
	<path
   d="m 322.4,349.8 c 0.8,0 1.6,0.1 2.5,0.3 0.8,0.2 1.6,0.5 2.3,0.9 0,-6.5 -3.6,-14.5 -7.5,-16.3 1.7,5.1 2.2,10.2 1.5,15.2 0.4,0 0.8,-0.1 1.2,-0.1 z"
   id="path79"
   inkscape:connector-curvature="0"
   style="fill:#1c355e" />
	<path
   d="m 271.5,338.2 c -1.5,-1.6 -3.3,-2.3 -5.1,-2.3 -2.4,0 -4.7,1.4 -6,4.1 -1.5,3 -1.8,6.3 -1.4,9.5 0.5,4.4 2,8.4 5.3,11.4 1.7,1.6 3.5,2.3 5.2,2.3 2.3,0 4.5,-1.4 5.8,-4.2 1,-2.2 1.3,-4.7 1.6,-5.9 -0.1,-1.8 -0.2,-3.5 -0.5,-5 -0.2,-0.7 -0.4,-1.5 -0.6,-2.3 -0.8,-2.9 -2.2,-5.4 -4.3,-7.6 z"
   id="path81"
   inkscape:connector-curvature="0"
   style="fill:#1c355e" />
	<path
   d="m 295.3,341.7 c 0.1,-3.2 -0.3,-6.1 -1.8,-8.6 -1.5,-2.6 -4.3,-4.4 -7,-4.4 -2,0 -4,0.9 -5.5,3.1 -3.7,5.2 -3.4,15.9 0.8,20.6 1,1.1 2.4,2 3.8,2.4 0.5,0.1 1,0.2 1.5,0.2 2.6,0 4.9,-1.8 6.3,-4.9 1.3,-2.9 2.1,-5.7 1.9,-8.4 z"
   id="path83"
   inkscape:connector-curvature="0"
   style="fill:#1c355e" />
	<path
   d="m 309.2,360.4 c 5.2,-5 6.5,-15.5 2.7,-21.6 -1.4,-2.3 -3.4,-3.5 -5.4,-3.5 -2,0 -4,1.1 -5.5,3.4 -2.4,3.4 -3.2,7.2 -3.4,11.2 0.1,3.7 0.6,7.3 3.3,10.3 1.3,1.4 2.8,2.1 4.3,2.1 1.4,-0.2 2.8,-0.8 4,-1.9 z"
   id="path85"
   inkscape:connector-curvature="0"
   style="fill:#1c355e" />
	<path
   d="m 329.3,360.8 c -0.2,-3.7 -2.3,-7 -5.1,-7.7 -0.6,-0.1 -1.2,-0.2 -1.7,-0.2 -2.6,0 -4.7,1.5 -6.4,3.5 -3.5,4.1 -4.8,9 -3.9,14.3 0.5,3 1.6,5.8 5,6.8 0.6,0.2 1.2,0.3 1.8,0.3 2.4,0 4.4,-1.4 6.1,-3.3 3,-3.3 4.2,-7.3 4.3,-11.6 -0.1,-0.7 -0.1,-1.4 -0.1,-2.1 z"
   id="path87"
   inkscape:connector-curvature="0"
   style="fill:#1c355e" />
	<path
   d="m 262.2,369.1 c -0.6,-4 -1.8,-7.3 -4.8,-9.9 -1.3,-1.1 -2.8,-1.7 -4.2,-1.7 -2.1,0 -4,1.2 -5.1,3.5 -0.8,1.7 -1.3,3.7 -1.5,5.6 -0.5,4.7 0.3,9.1 3.5,12.9 1.6,1.9 3.5,2.8 5.3,2.8 2.1,0 4.2,-1.3 5.5,-3.8 0.2,-0.4 0.4,-0.9 0.6,-1.4 0.9,-2.5 1.1,-5.3 0.7,-8 z"
   id="path89"
   inkscape:connector-curvature="0"
   style="fill:#1c355e" />
	<path
   d="M 304,408.1 Z"
   id="path91"
   inkscape:connector-curvature="0"
   style="fill:#1c355e" />
	<path
   d="m 313.1,378.9 c -5.1,-2.3 -8.6,-6 -10,-11.8 -0.2,-1 -0.8,-2 -1.5,-2.9 -0.5,-0.6 -1,-1.1 -1.5,-1.5 -0.5,-0.4 -1,-0.7 -1.6,-1 -6,-3.4 -13.6,-3.7 -20.2,-0.6 -1,0.5 -2,1 -3,1.7 -1.6,1.1 -2.9,2.4 -4,3.8 -1.5,2.1 -2.5,4.5 -3.3,7 -1.9,6 -5.2,10.9 -11.4,13.4 -3,1.2 -5.2,3.4 -6.1,6.6 -2,6.4 4.2,15.2 11,15.8 3.5,0.3 6.9,-0.6 10,-2 6.7,-3 13.5,-3.6 20.6,-1.4 3.8,1.2 8,1.2 11.9,2 7.7,0.5 13,-3.4 17.1,-9.3 1.5,-2.2 2.5,-4.6 2.9,-7.3 0.5,-4 -1.1,-7.4 -4.6,-9.4 -0.8,-0.5 -1.6,-0.9 -2.4,-1.4 -0.8,-0.4 -1.6,-0.8 -2.5,-1.2 -0.5,0 -1,-0.2 -1.4,-0.5 z M 304,408 Z"
   id="path93"
   inkscape:connector-curvature="0"
   style="fill:#1c355e" />
	<polygon
   points="227.9,338.5 213.9,324.5 173.2,365.2 213.8,405.8 227.7,391.8 201.2,365.2 "
   id="polygon95"
   style="fill:#238dc1" />
	<path
   d="m 209.6,455.3 c 2.1,0 5.8,0.2 8.5,2.3 1.2,0.9 3.3,3.2 3.3,7.7 0,1.8 -0.4,5 -3.7,7.3 5.2,1.3 7,5.8 7,9.3 0,3.5 -1.8,6.4 -3.8,8 -2.9,2.3 -6.3,2.4 -8.9,2.4 h -9.2 v -37 z m -2.6,16.2 h 3.1 c 2.2,0 7.3,-0.4 7.3,-6.2 0,-6.1 -6,-6.2 -7.2,-6.2 H 207 Z m 0,16.9 h 4.7 c 2.4,0 4.7,-0.2 6.5,-1.6 1.4,-1.1 2.4,-2.9 2.4,-5.1 0,-2.9 -1.7,-4.7 -3.2,-5.4 -1.4,-0.8 -3.3,-1.1 -6.3,-1.1 H 207 Z"
   id="path97"
   inkscape:connector-curvature="0"
   style="fill:#1c355e" />
	<path
   d="m 237.5,455.3 c 2.5,0 6.2,0.2 9,2.1 2.2,1.4 4,4.3 4,8.2 0,5.7 -3.7,9.8 -9.3,10.2 l 11.8,16.5 h -5 l -11.3,-16.2 h -1.1 v 16.2 h -4.1 v -37 z m -1.8,17.1 h 2.6 c 5.1,0 8.1,-2.4 8.1,-6.8 0,-2.1 -0.6,-4.1 -2.9,-5.4 -1.7,-0.9 -3.5,-1.1 -5.3,-1.1 h -2.5 z"
   id="path99"
   inkscape:connector-curvature="0"
   style="fill:#1c355e" />
	<path
   d="m 262,478 c 0,3.1 0,6.5 2.9,9 1.5,1.3 4,2.1 6.1,2.1 2.1,0 4.6,-0.8 6.1,-2.1 2.9,-2.5 2.9,-5.9 2.9,-9 v -22.7 h 4.1 v 23.8 c 0,3.1 -0.3,6.1 -2.3,8.9 -2.2,3 -6.1,5 -10.8,5 -4.7,0 -8.6,-1.9 -10.8,-5 -2,-2.8 -2.3,-5.8 -2.3,-8.9 v -23.8 h 4.1 z"
   id="path101"
   inkscape:connector-curvature="0"
   style="fill:#1c355e" />
	<polygon
   points="316.3,455.3 320.4,455.3 320.4,492.3 316.3,492.3 316.3,474.2 297.3,474.2 297.3,492.3 293.2,492.3 293.2,455.3 297.3,455.3 297.3,470.3 316.3,470.3 "
   id="polygon103"
   style="fill:#1c355e" />
	<rect
   x="329.39999"
   y="455.29999"
   width="4.0999999"
   height="37"
   id="rect105"
   style="fill:#1c355e" />
	<polygon
   points="371.4,484 371.4,455.3 375.5,455.3 375.5,493.9 346.6,463.7 346.6,492.3 342.5,492.3 342.5,453.8 "
   id="polygon107"
   style="fill:#1c355e" />
	<path
   d="m 232.1,514.1 c -0.2,-0.4 -0.5,-0.8 -0.8,-1 -0.3,-0.2 -0.7,-0.5 -1.5,-0.5 -1.3,0 -2.3,0.8 -2.3,2.1 0,0.5 0.1,0.8 0.5,1.2 0.4,0.4 0.9,0.6 1.4,0.8 l 1.3,0.6 c 0.8,0.3 1.5,0.7 2.1,1.3 0.7,0.7 1,1.5 1,2.4 0,2.5 -1.8,4.1 -4.3,4.1 -0.9,0 -2,-0.2 -2.9,-1.1 -0.7,-0.6 -1.1,-1.6 -1.3,-2.4 l 1.5,-0.4 c 0.1,0.7 0.4,1.3 0.8,1.7 0.6,0.6 1.3,0.7 1.9,0.7 1.8,0 2.7,-1.3 2.7,-2.7 0,-0.6 -0.2,-1.1 -0.7,-1.6 -0.4,-0.4 -0.9,-0.6 -1.6,-0.9 l -1.2,-0.6 c -0.5,-0.2 -1.2,-0.5 -1.8,-1.1 -0.6,-0.6 -0.9,-1.2 -0.9,-2.2 0,-2.1 1.6,-3.5 3.8,-3.5 0.8,0 1.5,0.2 2.2,0.6 0.5,0.4 1,0.9 1.3,1.5 z"
   id="path109"
   inkscape:connector-curvature="0"
   style="fill:#1c355e" />
	<path
   d="m 239.7,518.2 c 0,-4 3.1,-7 7,-7 3.9,0 7,2.9 7,7 0,4 -3.1,7 -7,7 -3.9,-0.1 -7,-3 -7,-7 z m 1.5,0 c 0,3.1 2.4,5.6 5.5,5.6 3,0 5.5,-2.5 5.5,-5.6 0,-3.1 -2.4,-5.6 -5.5,-5.6 -3.1,0 -5.5,2.5 -5.5,5.6 z"
   id="path111"
   inkscape:connector-curvature="0"
   style="fill:#1c355e" />
	<polygon
   points="262,516.8 266.5,516.8 266.5,518.2 262,518.2 262,524.9 260.5,524.9 260.5,511.4 266.6,511.4 266.6,512.8 262,512.8 "
   id="polygon113"
   style="fill:#1c355e" />
	<polygon
   points="275.5,524.9 275.5,512.8 272.2,512.8 272.2,511.4 280.2,511.4 280.2,512.8 276.9,512.8 276.9,524.9 "
   id="polygon115"
   style="fill:#1c355e" />
	<polygon
   points="294.8,510.7 298.8,521.5 302.8,511.4 304.4,511.4 298.8,525.6 294.8,514.8 290.6,525.6 285.4,511.4 287.1,511.4 290.6,521.5 "
   id="polygon117"
   style="fill:#1c355e" />
	<path
   d="M 316.7,521.1 H 311 l -1.6,3.8 h -1.7 l 6.2,-14.1 6,14.1 h -1.7 z m -0.6,-1.4 -2.3,-5.4 -2.3,5.4 z"
   id="path119"
   inkscape:connector-curvature="0"
   style="fill:#1c355e" />
	<path
   d="m 328,511.4 c 0.9,0 2.3,0.1 3.3,0.7 0.8,0.5 1.5,1.6 1.5,3 0,2.1 -1.4,3.6 -3.4,3.7 l 4.3,6 h -1.8 l -4.1,-5.9 h -0.4 v 5.9 h -1.5 v -13.5 h 2.1 z m -0.6,6.3 h 0.9 c 1.9,0 3,-0.9 3,-2.5 0,-0.7 -0.2,-1.5 -1.1,-2 -0.6,-0.3 -1.3,-0.4 -1.9,-0.4 h -0.9 z"
   id="path121"
   inkscape:connector-curvature="0"
   style="fill:#1c355e" />
	<polygon
   points="341.4,516.8 346.7,516.8 346.7,518.3 341.4,518.3 341.4,523.5 346.9,523.5 346.9,524.9 339.9,524.9 339.9,511.4 346.9,511.4 346.9,512.8 341.4,512.8 "
   id="polygon123"
   style="fill:#1c355e" />
</g>
</svg>